<?xml version="1.0" encoding="utf-8"?>
<!-- Generator: Adobe Illustrator 26.5.0, SVG Export Plug-In . SVG Version: 6.00 Build 0)  -->
<svg version="1.1" id="Ebene_1" xmlns="http://www.w3.org/2000/svg" xmlns:xlink="http://www.w3.org/1999/xlink" x="0px" y="0px"
	 viewBox="0 0 472.4 470.1" enable-background="new 0 0 472.4 470.1" xml:space="preserve">
<g>
	<g>
		
			<linearGradient id="SVGID_1_" gradientUnits="userSpaceOnUse" x1="383.4622" y1="381.1541" x2="63.4622" y2="57.1541" gradientTransform="matrix(1 0 0 -1 0 463.6832)">
			<stop  offset="0" style="stop-color:#E93068"/>
			<stop  offset="1" style="stop-color:#FA2EE8"/>
		</linearGradient>
		<path fill="url(#SVGID_1_)" d="M224.2,285.4c-47.1-78-38.7-174,14-242c-37.7,0-75.8,10-110.4,30.9C26.4,135.5-6,267.2,55.2,368.4
			c61.2,101.3,153.2,111.2,254.4,50.1c21.6-13.1,41.9-28.3,59.9-45.3C312.5,376.2,262.4,348.6,224.2,285.4z"/>
		
			<linearGradient id="SVGID_00000034048672973175189070000012911611759882700710_" gradientUnits="userSpaceOnUse" x1="406.1129" y1="358.7831" x2="86.1129" y2="34.7831" gradientTransform="matrix(1 0 0 -1 0 463.6832)">
			<stop  offset="0" style="stop-color:#E93068"/>
			<stop  offset="1" style="stop-color:#FA2EE8"/>
		</linearGradient>
		<path fill="url(#SVGID_00000034048672973175189070000012911611759882700710_)" d="M421.8,146.9C381.5,80.2,310.7,43.4,238.1,43.4
			c-52.6,68-61.1,164-14,242c38.2,63.2,88.4,90.8,145.3,87.8C435.6,311,469.9,226.5,421.8,146.9z"/>
		
			<linearGradient id="SVGID_00000146486279285611958570000016933008104954910874_" gradientUnits="userSpaceOnUse" x1="193.2533" y1="208.4438" x2="613.3092" y2="208.4438">
			<stop  offset="0" style="stop-color:#E93068"/>
			<stop  offset="1" style="stop-color:#FA2EE8"/>
		</linearGradient>
		<path opacity="0.31" fill="url(#SVGID_00000146486279285611958570000016933008104954910874_)" d="M421.8,146.9
			C381.5,80.2,310.7,43.4,238.1,43.4c-52.6,68-61.1,164-14,242c38.2,63.2,88.4,90.8,145.3,87.8C435.6,311,469.9,226.5,421.8,146.9z"
			/>
	</g>
</g>
<g>
	<circle cx="394" cy="320.9" r="37.5"/>
	<path fill="none" stroke="#000000" stroke-width="15" d="M247.4,51.9L59.5,374.1"/>
	<ellipse transform="matrix(0.7071 -0.7071 0.7071 0.7071 41.189 193.3274)" cx="254" cy="46.9" rx="37.5" ry="37.5"/>
	<path fill="none" stroke="#000000" stroke-width="15" d="M390.3,325.5l-305.7,41"/>
	
		<linearGradient id="SVGID_00000149349619557292933980000005811531336367483574_" gradientUnits="userSpaceOnUse" x1="-134.8439" y1="404.7401" x2="-277.6032" y2="363.9651" gradientTransform="matrix(-0.8557 -0.5175 -0.5175 0.8557 106.8076 -50.959)">
		<stop  offset="0" style="stop-color:#FF72F3"/>
		<stop  offset="1" style="stop-color:#FB4179"/>
	</linearGradient>
	<circle fill="url(#SVGID_00000149349619557292933980000005811531336367483574_)" cx="50.6" cy="375.5" r="37.5"/>
</g>
<path fill="#FFFFFF" d="M190.9,153.4h36.9c15.4,0,26.8,4.9,34.3,14.8c7.4,9.8,11.2,24,11.2,42.5s-3.7,32.6-11.2,42.5
	c-7.4,9.8-18.9,14.8-34.3,14.8h-36.9V153.4z M226.2,248.5c7.3,0,12.7-2.4,16.1-7.1s5.1-11.5,5.1-20.5v-20.8c0-8.9-1.7-15.6-5.1-20.3
	s-8.7-7.1-16.1-7.1h-11v75.8H226.2z M288.6,267.9V153.4h73.2v20.2h-48.6v26.2h46.9V220h-46.9v27.7h48.6v20.2H288.6z"/>
</svg>
